<svg width="25" height="25" viewBox="0 0 25 25" fill="none" xmlns="http://www.w3.org/2000/svg">
  <path
    d="M10.4489 12.5944C10.5014 12.5952 10.5524 12.6118 10.5953 12.6422C10.6381 12.6725 10.6707 12.7151 10.6889 12.7644L11.8489 15.9444C11.9412 16.1918 12.1275 16.3927 12.3673 16.5032C12.6071 16.6137 12.8809 16.6249 13.1289 16.5344C13.3781 16.4441 13.5813 16.2586 13.6939 16.0186C13.8064 15.7786 13.819 15.5037 13.7289 15.2544L8.72891 1.53438C8.62381 1.2448 8.43209 0.994611 8.17983 0.817802C7.92756 0.640992 7.62697 0.546143 7.31891 0.546143C7.01085 0.546143 6.71026 0.640992 6.45799 0.817802C6.20572 0.994611 6.01401 1.2448 5.90891 1.53438L0.84891 15.3044C0.75741 15.5537 0.768693 15.8291 0.880277 16.0701C0.991862 16.3111 1.19461 16.4979 1.44391 16.5894C1.69321 16.6809 1.96865 16.6696 2.20964 16.558C2.45062 16.4464 2.63741 16.2437 2.72891 15.9944L3.88891 12.7644C3.90708 12.7151 3.93972 12.6725 3.98256 12.6422C4.0254 12.6118 4.07642 12.5952 4.12891 12.5944H10.4489ZM7.05891 4.14438C7.07367 4.09485 7.10404 4.0514 7.14548 4.02051C7.18692 3.98962 7.23722 3.97294 7.28891 3.97294C7.3406 3.97294 7.3909 3.98962 7.43234 4.02051C7.47378 4.0514 7.50414 4.09485 7.51891 4.14438L9.76891 10.3044C9.78817 10.3397 9.79826 10.3792 9.79826 10.4194C9.79826 10.4596 9.78817 10.4991 9.76891 10.5344C9.74357 10.5656 9.71156 10.5909 9.67523 10.6082C9.6389 10.6255 9.59915 10.6344 9.55891 10.6344H5.04891C5.00867 10.6344 4.96892 10.6255 4.93259 10.6082C4.89625 10.5909 4.86425 10.5656 4.83891 10.5344C4.81965 10.4991 4.80956 10.4596 4.80956 10.4194C4.80956 10.3792 4.81965 10.3397 4.83891 10.3044L7.05891 4.14438Z"
    fill="black" />
  <path
    d="M23.3689 8.78438C23.1537 8.63154 22.8869 8.56994 22.6265 8.61303C22.3661 8.65611 22.1333 8.80038 21.9789 9.01438L12.9789 21.5744C12.9365 21.6349 12.8813 21.6853 12.8172 21.7219C12.7531 21.7585 12.6817 21.7805 12.608 21.7862C12.5344 21.792 12.4605 21.7813 12.3914 21.7551C12.3224 21.7288 12.2601 21.6876 12.2089 21.6344L8.49888 17.8944C8.40592 17.8007 8.29531 17.7263 8.17346 17.6755C8.0516 17.6247 7.92089 17.5986 7.78888 17.5986C7.65687 17.5986 7.52616 17.6247 7.4043 17.6755C7.28244 17.7263 7.17184 17.8007 7.07888 17.8944C6.89263 18.0817 6.78809 18.3352 6.78809 18.5994C6.78809 18.8636 6.89263 19.117 7.07888 19.3044L11.2889 23.4744C11.4952 23.6783 11.7433 23.8349 12.0161 23.9333C12.289 24.0317 12.5799 24.0696 12.8689 24.0444C13.1509 24.0146 13.4233 23.9252 13.6681 23.7821C13.913 23.639 14.1246 23.4455 14.2889 23.2144L23.5989 10.2144C23.6809 10.1066 23.7401 9.98327 23.7731 9.85189C23.806 9.72051 23.8118 9.58381 23.7903 9.45009C23.7688 9.31637 23.7204 9.18841 23.6479 9.07398C23.5755 8.95954 23.4805 8.86102 23.3689 8.78438Z"
    fill="black" />
</svg>